HIERARCHY
ROOT Hips
{
	OFFSET 0.000000 0.000000 0.000000
	CHANNELS 6 Xposition Yposition Zposition Zrotation Yrotation Xrotation 
	JOINT LHipJoint
	{
		OFFSET 0.000000 0.000000 0.000000
		CHANNELS 3 Zrotation Yrotation Xrotation
		JOINT LeftUpLeg
		{
			OFFSET 1.363060 -1.794630 0.839290
			CHANNELS 3 Zrotation Yrotation Xrotation
			JOINT LeftLeg
			{
				OFFSET 2.448110 -6.726130 0.000000
				CHANNELS 3 Zrotation Yrotation Xrotation
				JOINT LeftFoot
				{
					OFFSET 2.562200 -7.039590 0.000000
					CHANNELS 3 Zrotation Yrotation Xrotation
					JOINT LeftToeBase
					{
						OFFSET 0.157640 -0.433110 2.322550
						CHANNELS 3 Zrotation Yrotation Xrotation
						End Site
						{
							OFFSET 0.000000 0.000000 0.000000
						}
					}
				}
			}
		}
	}
	JOINT RHipJoint
	{
		OFFSET 0.000000 0.000000 0.000000
		CHANNELS 3 Zrotation Yrotation Xrotation
		JOINT RightUpLeg
		{
			OFFSET -1.305520 -1.794630 0.839290
			CHANNELS 3 Zrotation Yrotation Xrotation
			JOINT RightLeg
			{
				OFFSET -2.542530 -6.985550 0.000000
				CHANNELS 3 Zrotation Yrotation Xrotation
				JOINT RightFoot
				{
					OFFSET -2.568260 -7.056230 0.000000
					CHANNELS 3 Zrotation Yrotation Xrotation
					JOINT RightToeBase
					{
						OFFSET -0.164730 -0.452590 2.363150
						CHANNELS 3 Zrotation Yrotation Xrotation
						End Site
						{
							OFFSET 0.000000 0.000000 0.000000
						}
					}
				}
			}
		}
	}
}
MOTION
Frames: 27
Frame Time: 0.008333
-11.497658 16.644363 -2.291135 11.592212 83.750954 13.197229 -10.539566 0.596656 2.018172 -8.637256 10.932133 -34.060315 -2.141229 0.327942 17.991322 1.056158 6.730720 0.387580 1.127500 0.000000 -34.434799 10.263665 -3.381365 -2.697053 -2.511126 -19.983629 4.828181 -0.727279 -2.641614 38.281718 -2.453429 -14.557768 10.563996 -4.526300 0.000000 -68.527600
-11.285408 16.625878 -2.291756 13.738595 83.459046 14.960593 -10.615345 0.622870 1.756526 -8.745161 11.510713 -33.891198 -2.034908 0.514135 20.059814 1.051347 6.840412 1.075305 1.194400 -0.000000 -34.381200 10.419775 -3.293542 -2.804177 -3.203696 -20.391190 3.760858 -0.878515 -2.795030 41.250764 -2.728077 -16.213622 10.752482 -5.070600 -0.000000 -61.094500
-11.078025 16.605260 -2.289267 15.684782 83.152710 16.556901 -10.673246 0.656060 1.477234 -8.912240 12.229902 -33.799381 -1.940690 0.691958 22.138936 1.043618 6.885849 1.651895 1.236799 0.000000 -34.032800 10.573530 -3.199712 -2.898875 -3.775763 -20.729528 2.517768 -0.989733 -2.956125 44.293180 -2.959960 -17.639658 10.149980 -5.352000 0.000000 -53.043100
-10.875236 16.583632 -2.283843 17.379434 82.824734 17.952428 -10.713493 0.695694 1.198966 -9.106075 13.027482 -33.757202 -1.862917 0.853928 24.137809 1.037570 6.896112 2.031167 1.250200 0.000000 -33.467801 10.719237 -3.105407 -2.977085 -4.196902 -20.986034 1.091640 -1.071647 -3.127007 47.348956 -3.141124 -18.767151 8.825497 -5.317300 0.000001 -45.162800
-10.676571 16.562114 -2.275776 18.776105 82.470549 19.112547 -10.738113 0.741681 0.935885 -9.301644 13.850946 -33.743716 -1.805844 0.997226 26.002448 1.035280 6.891872 2.141566 1.231801 0.000000 -32.799800 10.852138 -3.013293 -3.034513 -4.441126 -21.151814 -0.516872 -1.133359 -3.304804 50.362135 -3.270244 -19.565274 6.901343 -4.964900 -0.000000 -38.044500
-10.481530 16.541743 -2.265465 19.846317 82.087677 20.011921 -10.750554 0.794159 0.697619 -9.479798 14.659380 -33.738011 -1.772066 1.121773 27.705273 1.037327 6.887202 1.937751 1.180400 -0.000000 -32.140400 10.968410 -2.924149 -3.068918 -4.494686 -21.226980 -2.295767 -1.179266 -3.484241 53.284581 -3.348459 -20.022685 4.492706 -4.324400 -0.000000 -31.806800
-10.289563 16.523303 -2.253212 20.603420 81.676202 20.658868 -10.754381 0.852863 0.488577 -9.629283 15.423856 -33.716376 -1.761845 1.228544 29.234962 1.043819 6.892142 1.410113 1.096900 0.000000 -31.600400 11.066230 -2.837312 -3.081006 -4.361165 -21.220791 -4.220538 -1.209117 -3.659629 56.069899 -3.378701 -20.144283 1.707026 -3.451200 -0.000000 -26.294901
-10.100159 16.507370 -2.239569 21.011589 81.237548 21.005405 -10.755069 0.917615 0.309494 -9.729544 16.130757 -33.654610 -1.773171 1.320148 30.594408 1.054749 6.908302 0.579705 0.982500 -0.000000 -31.245201 11.141947 -2.750139 -3.074223 -4.042104 -21.142646 -6.248392 -1.220822 -3.823645 58.665188 -3.367060 -19.959562 -1.333342 -2.427100 -0.000001 -21.330500
-9.913071 16.494383 -2.224101 21.252355 80.774513 21.215761 -10.751749 0.987200 0.157178 -9.798487 16.762800 -33.513762 -1.801874 1.394446 31.771699 1.071618 6.953587 -0.491887 0.844500 0.000000 -31.114900 11.202566 -2.661986 -3.050155 -3.588676 -21.009791 -8.342833 -1.209983 -3.974867 61.028609 -3.320728 -19.506345 -4.494072 -1.344100 0.000001 -16.781000
-9.727936 16.484460 -2.207651 21.221315 80.290837 21.166244 -10.752041 1.061391 0.026981 -9.801919 17.331741 -33.275626 -1.842871 1.456159 32.784967 1.094108 7.019089 -1.732439 0.685900 -0.000000 -31.226900 11.241842 -2.567993 -3.015896 -2.995776 -20.830872 -10.444229 -1.177253 -4.105541 63.109071 -3.251661 -18.858610 -7.614046 -0.301400 0.000000 -12.724600
-9.544689 16.477634 -2.189938 21.040092 79.792945 20.961196 -10.755817 1.138583 -0.088283 -9.749641 17.840116 -32.915480 -1.890158 1.504926 33.634770 1.122583 7.113622 -3.048322 0.515700 -0.000001 -31.560800 11.265049 -2.466755 -2.975966 -2.305843 -20.624837 -12.514566 -1.123973 -4.215770 64.879270 -3.170946 -18.089245 -10.547048 0.626200 0.000000 -9.275400
-9.363379 16.473770 -2.170849 20.767140 79.287565 20.642862 -10.764610 1.218384 -0.195048 -9.642475 18.300448 -32.420419 -1.937899 1.542222 34.329504 1.156022 7.238557 -4.345906 0.342899 0.000000 -32.080300 11.274140 -2.356904 -2.935105 -1.545865 -20.409677 -14.518556 -1.055097 -4.305059 66.322273 -3.090345 -17.282464 -13.174206 1.395100 0.000000 -6.552400
-9.184117 16.472581 -2.150159 20.467904 78.784237 20.265748 -10.778533 1.300110 -0.299368 -9.487752 18.726001 -31.788522 -1.980934 1.569359 34.879442 1.192500 7.393378 -5.542246 0.176700 -0.000000 -32.731100 11.271747 -2.238316 -2.897603 -0.742259 -20.205164 -16.434083 -0.976201 -4.374899 67.436989 -3.020599 -16.519937 -15.428469 1.998500 0.000000 -4.563700
-9.007032 16.473757 -2.127535 20.197717 78.290988 19.880680 -10.797098 1.383636 -0.405856 -9.295588 19.130879 -31.029130 -2.015743 1.588009 35.296548 1.229460 7.574188 -6.573851 0.025400 0.000000 -33.454800 11.259674 -2.111180 -2.866878 0.084448 -20.028904 -18.251189 -0.892022 -4.427096 68.234511 -2.971184 -15.873782 -17.299330 2.459301 0.000000 -3.175300
-8.832233 16.476884 -2.102718 19.992417 77.815563 19.523301 -10.819660 1.469261 -0.516989 -9.075371 19.528640 -30.159451 -2.040541 1.599964 35.594028 1.264222 7.773490 -7.402539 -0.104100 -0.000000 -34.200000 11.238500 -1.976352 -2.844801 0.921229 -19.894268 -19.968290 -0.805202 -4.463188 68.733414 -2.949736 -15.398397 -18.823061 2.817100 -0.000000 -2.153600
-8.659818 16.481552 -2.075460 19.871876 77.363765 19.218406 -10.845174 1.557198 -0.633361 -8.835572 19.929733 -29.202933 -2.055392 1.606860 35.785610 1.294543 7.981125 -8.017774 -0.208199 0.000000 -34.926900 11.207996 -1.834996 -2.831805 1.761834 -19.809193 -21.591672 -0.715948 -4.484411 68.956363 -2.961520 -15.124673 -20.067423 3.115400 0.000000 -1.231800
-8.489734 16.487376 -2.045596 19.838135 76.939386 18.976769 -10.872472 1.647402 -0.754055 -8.582304 20.341128 -28.185481 -2.061945 1.610003 35.884153 1.319153 8.186768 -8.434703 -0.286100 -0.000001 -35.611000 11.167113 -1.688465 -2.826933 2.606563 -19.775487 -23.131990 -0.622438 -4.491337 68.924520 -3.008797 -15.057053 -21.111961 3.391800 -0.000000 -0.183800
-8.321916 16.494034 -2.013075 19.877916 76.544285 18.795210 -10.900597 1.739664 -0.876501 -8.318314 20.765577 -27.132129 -2.062796 1.610245 35.902449 1.337858 8.381575 -8.689154 -0.341000 -0.000000 -36.242600 11.114091 -1.538646 -2.827663 3.460926 -19.789963 -24.600749 -0.521738 -4.483790 68.654935 -3.090874 -15.176835 -22.032390 -176.326200 -0.000000 -1.130999
-8.156110 16.501224 -1.977927 19.970023 76.178037 18.663553 -10.928720 1.833340 -0.997806 -8.044229 21.201532 -26.064322 -2.061055 1.607978 35.851281 1.351439 8.559868 -8.829460 -0.378400 0.000000 -36.826500 11.046941 -1.387544 -2.830982 4.333285 -19.845273 -26.007412 -0.410572 -4.461020 68.157295 -3.204303 -15.447322 -22.888690 -176.022600 0.000000 -2.745700
-7.991938 16.508796 -1.940285 20.084761 75.836187 18.563493 -10.956684 1.928133 -1.115088 -7.759012 21.644719 -24.998751 -2.060089 1.603625 35.738632 1.361471 8.720621 -8.907505 -0.405500 -0.000001 -37.379400 10.963182 -1.236480 -2.834108 5.233461 -19.931480 -27.357539 -0.286233 -4.421146 67.433391 -3.343624 -15.821499 -23.719352 -175.692300 0.000000 -4.599500
-7.829160 16.516472 -1.900277 20.197428 75.518987 18.475576 -10.984022 2.022463 -1.225721 -7.459657 22.088491 -23.944330 -2.061777 1.596477 35.573443 1.369625 8.865202 -8.971768 -0.429800 -0.000001 -37.928100 10.861475 -1.089384 -2.834155 6.169357 -20.041944 -28.648953 -0.146466 -4.363384 66.479198 -3.502214 -16.250510 -24.541559 -175.339000 0.000001 -6.563500
-7.667340 16.524178 -1.858130 20.278123 75.220681 18.375173 -11.011533 2.116381 -1.327320 -7.142702 22.526475 -22.905852 -2.067843 1.586693 35.360806 1.377694 8.998838 -9.057580 -0.457200 -0.000000 -38.504100 10.739694 -0.948407 -2.829180 7.149901 -20.168966 -29.874736 0.009392 -4.285122 65.283892 -3.673707 -16.691692 -25.352293 -174.973100 -0.000000 -8.480599
-7.506081 16.531814 -1.813994 20.303343 74.936635 18.240551 -11.040028 2.209599 -1.418979 -6.804011 22.954219 -21.882843 -2.078885 1.574319 35.104424 1.387040 9.127361 -9.185274 -0.491500 0.000000 -39.137900 10.596625 -0.816182 -2.818824 8.181230 -20.309311 -31.021806 0.181081 -4.184218 63.833631 -3.852660 -17.112861 -26.136286 -174.608300 0.000000 -10.203200
-7.345108 16.539248 -1.768008 20.258947 74.663410 18.055651 -11.070354 2.302425 -1.499949 -6.440812 23.368627 -20.871631 -2.094232 1.559492 34.808300 1.398463 9.256353 -9.357550 -0.533500 -0.000000 -39.852300 10.431888 -0.695715 -2.802987 9.266547 -20.463221 -32.073928 0.367125 -4.058771 62.115456 -4.035587 -17.497220 -26.871939 -174.258300 0.000000 -11.621300
-7.184238 16.546359 -1.720120 20.142700 74.397519 17.814159 -11.103076 2.395352 -1.570870 -6.051426 23.770191 -19.866725 -2.112484 1.542606 34.475999 1.412060 9.389661 -9.561664 -0.581599 0.000000 -40.656800 10.246186 -0.589527 -2.782764 10.405620 -20.634651 -33.013791 0.565127 -3.907292 60.119174 -4.221072 -17.842543 -27.537439 -173.934000 0.000000 -12.677100
-7.023329 16.553011 -1.670311 19.951456 74.136261 17.508778 -11.138987 2.488923 -1.633416 -5.632372 24.163026 -18.863750 -2.131857 1.524652 34.112717 1.426996 9.526785 -9.773277 -0.631800 -0.000000 -41.545900 10.040569 -0.499523 -2.759884 11.598512 -20.827399 -33.824999 0.771694 -3.728291 57.839716 -4.410171 -18.161744 -28.114840 -173.640800 0.000000 -13.367400
-6.862478 16.559025 -1.618238 19.713465 73.878224 17.161868 -11.177201 2.584039 -1.689502 -5.189076 24.550721 -17.857461 -2.149966 1.506067 33.723238 1.442110 9.666947 -9.960226 -0.678300 -0.000001 -42.499001 9.818570 -0.427174 -2.735096 12.835066 -21.047321 -34.497494 0.982871 -3.521735 55.283961 -4.604975 -18.474680 -28.594283 -173.379200 0.000000 -13.737200
